<svg width="460" height="132" viewBox="0 0 460 132" fill="none" xmlns="http://www.w3.org/2000/svg">
<path fill-rule="evenodd" clip-rule="evenodd" d="M355.802 12.1946L352.88 12.2594L352.627 0.824678L355.884 0.752493C357.149 0.724449 358.049 0.767027 358.583 0.880225C359.107 1.00407 359.546 1.20792 359.901 1.49178C360.326 1.83142 360.656 2.25651 360.891 2.76705C361.126 3.288 361.251 3.87131 361.266 4.51699C361.281 5.20432 361.182 5.80561 360.97 6.32086C360.783 6.84075 360.472 7.27482 360.037 7.62309C359.725 7.88007 359.347 8.06819 358.901 8.18747C358.503 8.3057 357.806 8.37584 356.812 8.39788L356.28 8.40965L355.718 8.42212L355.802 12.1946ZM355.662 5.90711L356.256 5.89395C356.995 5.87757 357.516 5.75922 357.819 5.53893C358.111 5.33448 358.252 4.98492 358.241 4.49025C358.23 4.01641 358.077 3.68118 357.781 3.48457C357.49 3.28263 356.972 3.18992 356.228 3.20642L355.603 3.22027L355.662 5.90711ZM319.348 7.63718L322.663 18.5836L325.647 17.68L324.297 13.2236L328.275 12.0188L329.624 16.4751L332.615 15.5692L329.3 4.62285L326.309 5.52873L327.598 9.78317L323.62 10.988L322.331 6.73356L319.348 7.63718ZM305.62 26.0971L301.744 18.27L299.448 19.4072L298.248 16.9848L305.634 13.327L306.834 15.7494L304.538 16.8866L308.414 24.7137L305.62 26.0971ZM287.43 23.4692L293.467 33.1834L296.141 31.5214L290.104 21.8073L287.43 23.4692ZM273.162 33.7085L277.679 37.0596C277.864 37.1915 278.074 37.3503 278.309 37.5359C278.391 37.6043 278.507 37.7044 278.659 37.8363C278.808 37.9641 278.926 38.0663 279.014 38.1428C278.86 37.8328 278.701 37.5297 278.538 37.2335C278.461 37.0879 278.364 36.8787 278.247 36.6062L275.903 31.5191L278.363 29.554L282.974 40.509L280.716 42.3131L276.563 39.3807C276.258 39.1576 275.984 38.9472 275.739 38.7493C275.715 38.7282 275.664 38.6891 275.585 38.6321C275.507 38.5751 275.414 38.5055 275.309 38.4233C275.323 38.4583 275.391 38.6011 275.511 38.8517C275.698 39.2357 275.849 39.5714 275.965 39.8586L277.926 44.5415L275.662 46.3506L266.002 39.4282L268.462 37.4631L272.901 40.9167C273.047 41.0331 273.273 41.2159 273.579 41.465C273.897 41.7304 274.119 41.9201 274.243 42.034C274.095 41.7395 273.992 41.5279 273.936 41.3994C273.743 41.0072 273.593 40.6903 273.487 40.4486L271.197 35.2786L273.162 33.7085ZM243.115 62.3149L251.567 70.0208L256.289 64.8423L254.395 63.1158L251.721 66.0486L250.295 64.7485L252.817 61.9831L251.004 60.3304L248.482 63.0957L247.016 61.7588L249.69 58.826L247.837 57.1364L243.115 62.3149ZM8.23795 83.1802L10.4162 85.116L16.7 75.399L14.3875 73.3438L9.17736 76.5838L8.41573 77.088C8.15407 77.2805 7.97264 77.4259 7.87144 77.524C8.10238 77.1858 8.324 76.7835 8.53633 76.3172C8.5493 76.2869 8.58043 76.2206 8.62973 76.118L11.2574 70.5621L8.95074 68.5122L0.0332031 75.8886L2.19972 77.814L5.98704 74.5638C6.09559 74.4652 6.25496 74.3211 6.46515 74.1317C6.67534 73.9422 6.83471 73.7981 6.94327 73.6995C7.15735 73.5135 7.47025 73.2202 7.88198 72.8196C7.59699 73.2423 7.30271 73.789 6.99914 74.4599C6.94422 74.5923 6.8932 74.6967 6.84606 74.7733L4.448 79.812L6.00135 81.1925L10.7236 78.2193C10.8015 78.163 10.8992 78.1001 11.0168 78.0304C11.6076 77.6636 12.118 77.3089 12.5479 76.9662C12.1738 77.4421 11.8914 77.8147 11.7007 78.0842C11.4987 78.3507 11.2721 78.6684 11.0208 79.0374L8.23795 83.1802ZM28.6494 93.4495L26.0976 91.6866L29.1872 89.2347C29.3646 89.0787 29.5616 88.9173 29.7782 88.7504C29.9749 88.5571 30.1788 88.372 30.3898 88.1949C30.284 88.4763 30.1654 88.79 30.034 89.136C29.9193 89.4303 29.8535 89.6127 29.8364 89.6832L28.6494 93.4495ZM29.8224 85.5525L20.0755 92.7204L22.6273 94.4833L24.2792 93.1367L27.9238 95.6544L27.2361 97.6671L29.788 99.43L33.0363 87.7727L29.8224 85.5525ZM42.6158 107.323L48.0157 97.2407L50.1163 98.3657C51.7048 99.2165 52.7743 99.8838 53.3246 100.368C53.8979 100.864 54.3357 101.414 54.6379 102.019C55.0446 102.804 55.2241 103.633 55.1763 104.505C55.1307 105.385 54.8706 106.268 54.396 107.154C53.9214 108.04 53.3307 108.746 52.6239 109.271C51.9291 109.785 51.1398 110.095 50.256 110.201C49.5665 110.275 48.8831 110.216 48.2057 110.025C47.5185 109.852 46.5092 109.408 45.1777 108.695L44.7163 108.448L42.6158 107.323ZM46.546 106.521L47.0074 106.768C48.0909 107.349 48.9988 107.545 49.7311 107.359C50.463 107.183 51.0859 106.616 51.5999 105.656C52.1113 104.701 52.2409 103.864 51.9884 103.144C51.736 102.424 51.0703 101.775 49.9914 101.197L49.5299 100.95L46.546 106.521ZM67.9747 107.127L63.705 117.738L70.2062 120.354L71.1628 117.977L67.4809 116.495L68.2013 114.705L71.673 116.102L72.5888 113.826L69.1171 112.429L69.8579 110.588L73.5397 112.07L74.4759 109.743L67.9747 107.127ZM97.2228 121.313L97.834 121.443C98.593 121.605 99.1274 121.634 99.4372 121.53C99.7543 121.416 99.9558 121.158 100.042 120.756C100.132 120.333 100.066 120.007 99.8428 119.779C99.5956 119.54 99.1027 119.341 98.3642 119.184L97.7071 119.043L97.2228 121.313ZM92.9625 127.425L95.3497 116.24L98.4135 116.894C99.6462 117.157 100.519 117.385 101.031 117.58C101.509 117.762 101.912 117.994 102.24 118.277C102.597 118.604 102.845 118.974 102.986 119.387C103.122 119.821 103.136 120.293 103.028 120.802C102.889 121.449 102.618 121.924 102.212 122.226C101.813 122.524 101.239 122.694 100.49 122.737C101.251 122.963 101.814 123.371 102.178 123.96C102.52 124.555 102.601 125.27 102.423 126.105C102.297 126.696 102.058 127.191 101.707 127.59C101.352 128.004 100.917 128.282 100.403 128.422C100.006 128.534 99.5058 128.582 98.9023 128.565C98.2839 128.518 97.3558 128.363 96.118 128.099L92.9625 127.425ZM96.2771 125.744L97.3467 125.972C98.07 126.127 98.5995 126.141 98.9351 126.016C99.2777 125.908 99.4941 125.643 99.5843 125.22C99.6822 124.761 99.6148 124.403 99.3821 124.146C99.1462 123.904 98.6564 123.704 97.9127 123.545L96.7972 123.307L96.2771 125.744ZM117.52 126.02L117.137 131.225L120.137 131.446L120.519 126.241L124.965 120.332L121.388 120.069L119.653 122.895L119.581 123.015C119.382 123.314 119.25 123.586 119.185 123.832C119.143 123.542 119.053 123.242 118.914 122.934C118.902 122.887 118.888 122.854 118.874 122.838L117.555 119.787L113.986 119.525L117.52 126.02ZM145.016 119.394L148.098 118.882L149.01 124.369C149.15 125.206 149.267 125.784 149.362 126.1C149.477 126.477 149.595 126.758 149.716 126.944C149.872 127.219 150.111 127.401 150.432 127.491C150.757 127.6 151.13 127.62 151.551 127.55C151.967 127.481 152.311 127.342 152.582 127.133C152.832 126.954 153.002 126.704 153.091 126.383C153.139 126.164 153.157 125.86 153.146 125.471C153.141 125.155 153.067 124.571 152.926 123.718L152.797 122.947L152.013 118.231L155.073 117.722L156.065 123.687C156.268 124.91 156.344 125.832 156.294 126.453C156.254 127.067 156.086 127.615 155.792 128.097C155.468 128.631 154.994 129.061 154.367 129.387C153.747 129.727 152.952 129.978 151.981 130.14C150.99 130.304 150.153 130.325 149.473 130.2C148.784 130.093 148.196 129.839 147.707 129.44C147.284 129.088 146.948 128.624 146.7 128.048C146.439 127.468 146.209 126.572 146.007 125.359L145.812 124.188L145.016 119.394ZM180.092 119.534C179.59 119.467 179.015 119.281 178.369 118.975L177.964 121.658C178.763 121.962 179.506 122.115 180.195 122.115C180.889 122.114 181.61 121.956 182.36 121.644C183.581 121.134 184.42 120.386 184.878 119.4C185.327 118.405 185.318 117.351 184.853 116.236C184.664 115.784 184.434 115.406 184.16 115.103C183.864 114.786 183.543 114.556 183.195 114.413C182.658 114.18 181.738 114.152 180.434 114.329C180.417 114.33 180.402 114.332 180.389 114.334C180.379 114.336 180.37 114.339 180.364 114.342C180.347 114.343 180.328 114.345 180.307 114.348C179.704 114.431 179.27 114.434 179.007 114.357C178.749 114.267 178.568 114.095 178.461 113.84C178.351 113.576 178.371 113.319 178.521 113.07C178.677 112.808 178.923 112.606 179.259 112.466C179.591 112.328 179.959 112.256 180.363 112.251C180.781 112.252 181.206 112.323 181.637 112.464L181.675 110.019C181.079 109.901 180.488 109.871 179.902 109.929C179.341 109.977 178.755 110.128 178.145 110.383C177.063 110.834 176.322 111.519 175.92 112.437C175.507 113.354 175.511 114.317 175.932 115.327C176.257 116.106 176.73 116.631 177.351 116.902C177.964 117.166 178.842 117.222 179.987 117.072C180.826 116.959 181.395 116.95 181.695 117.045C181.984 117.156 182.2 117.385 182.345 117.731C182.477 118.048 182.461 118.362 182.298 118.673C182.134 118.984 181.862 119.219 181.482 119.377C181.079 119.546 180.615 119.598 180.092 119.534ZM199.506 113.214L193.621 103.407L196.294 101.803L198.581 105.614L202.145 103.476L199.858 99.6641L202.537 98.0561L208.423 107.863L205.743 109.471L203.347 105.479L199.783 107.617L202.179 111.61L199.506 113.214ZM221.91 92.7702L219.495 94.7161L218.022 91.0572C217.923 90.8428 217.824 90.6081 217.726 90.353C217.596 90.1094 217.477 89.8613 217.367 89.6087C217.606 89.7901 217.874 89.993 218.168 90.2173C218.418 90.4108 218.574 90.5258 218.636 90.5621L221.91 92.7702ZM214.672 89.4021L218.776 100.784L221.191 98.8379L220.369 96.8715L223.818 94.0923L225.553 95.3235L227.968 93.3775L217.714 86.9514L214.672 89.4021ZM236.919 85.3451L228.887 77.2026L231.206 74.9147C231.655 74.4722 232.042 74.1084 232.368 73.8233C232.698 73.5346 232.985 73.3138 233.229 73.1607C233.654 72.9021 234.101 72.7395 234.569 72.6727C235.085 72.6025 235.591 72.6667 236.087 72.8653C236.576 73.0418 237.029 73.3413 237.445 73.764C238.064 74.3906 238.414 75.0578 238.498 75.7655C238.589 76.4659 238.396 77.1717 237.92 77.8829L243.376 78.9753L240.868 81.4497L235.855 80.1062L238.999 83.2932L236.919 85.3451ZM234.764 78.9994L235.175 78.5934C235.661 78.1143 235.933 77.6889 235.99 77.3173C236.034 76.9236 235.889 76.558 235.556 76.2205C235.154 75.8127 234.766 75.624 234.394 75.6547C234.015 75.6852 233.582 75.9401 233.096 76.4192L232.651 76.8581L234.764 78.9994ZM373.791 1.32663L372.233 12.6575L379.176 13.6121L379.525 11.0735L375.593 10.5329L375.856 8.62117L379.563 9.1309L379.897 6.70064L376.19 6.19091L376.46 4.22503L380.392 4.76562L380.734 2.28118L373.791 1.32663ZM405.484 14.911C405.213 15.6936 404.82 16.376 404.305 16.9583C403.794 17.5257 403.166 17.9864 402.421 18.3403C401.686 18.6812 400.915 18.8718 400.107 18.9121C399.263 18.9454 398.477 18.8361 397.749 18.5841C397.01 18.3287 396.325 17.9289 395.692 17.3848C395.069 16.8441 394.585 16.2193 394.241 15.5105C393.884 14.8196 393.677 14.0645 393.619 13.2452C393.565 12.4441 393.669 11.667 393.929 10.9139C394.19 10.1609 394.589 9.48592 395.126 8.88913C395.678 8.28099 396.307 7.81537 397.014 7.49228C397.743 7.13814 398.511 6.94092 399.319 6.90062C400.105 6.85844 400.889 6.97271 401.672 7.24344C402.454 7.51416 403.146 7.91316 403.746 8.44043C404.348 8.96277 404.828 9.58916 405.187 10.3196C405.551 11.0517 405.761 11.8077 405.817 12.5874C405.862 13.3637 405.751 14.1382 405.484 14.911ZM398.612 16.0885C399.424 16.3695 400.208 16.3017 400.964 15.8853C401.339 15.6787 401.655 15.4105 401.912 15.0807C402.169 14.7509 402.378 14.3546 402.538 13.892C402.85 12.9912 402.843 12.1429 402.517 11.3469C402.18 10.5525 401.611 10.0165 400.809 9.73897C399.987 9.45462 399.205 9.52321 398.464 9.94474C397.723 10.3663 397.196 11.0299 396.883 11.9356C396.557 12.8757 396.555 13.7264 396.876 14.4877C397.206 15.2689 397.785 15.8025 398.612 16.0885ZM417.07 26.2907L419.625 27.7079L421.455 24.408L421.947 24.6808L422.412 24.9385C423.282 25.4209 423.919 25.7116 424.322 25.8105C424.767 25.9321 425.189 25.9606 425.588 25.8961C426.139 25.8147 426.627 25.5966 427.05 25.2417C427.493 24.9039 427.882 24.4345 428.215 23.8332C428.528 23.2685 428.715 22.7017 428.774 22.1331C428.828 21.5735 428.758 21.0401 428.563 20.5329C428.399 20.1086 428.122 19.7109 427.732 19.3399C427.328 18.9729 426.573 18.4825 425.466 17.8686L422.617 16.2885L417.07 26.2907ZM423.195 22.496L422.675 22.208L423.979 19.8578L424.525 20.1609C425.177 20.5222 425.577 20.8634 425.727 21.1845C425.883 21.5036 425.847 21.8704 425.617 22.2848C425.377 22.7175 425.079 22.9484 424.723 22.9775C424.351 23.0152 423.841 22.8547 423.195 22.496ZM434.521 36.7985L441.125 27.4604L443.67 29.2604L438.609 36.417L441.772 38.6545L440.229 40.836L434.521 36.7985ZM454.531 37.6362L447.017 46.2592L452.301 50.8631L453.984 48.9311L450.992 46.3238L452.26 44.869L455.081 47.3275L456.693 45.478L453.871 43.0195L455.175 41.5234L458.167 44.1308L459.815 42.24L454.531 37.6362Z" fill="url(#paint0_linear_285_3767)"/>
<defs>
<linearGradient id="paint0_linear_285_3767" x1="447.206" y1="-3.28827" x2="381.954" y2="243.018" gradientUnits="userSpaceOnUse">
<stop stop-color="#BFF4D5"/>
<stop offset="0.317513" stop-color="#B1E5F6"/>
<stop offset="0.68233" stop-color="#FFB4C0"/>
<stop offset="1" stop-color="#FFB9A7"/>
</linearGradient>
</defs>
</svg>
